# xmcd
#
# Track frame offsets:
#	150
#	14757
#	24382
#	41127
#	54036
#	70510
#	79832
#	89301
#	102052
#	116592
#
# Disc length: 1717 seconds
#
# Revision: 0
# Processed by: cddbd v1.5.2PL0 Copyright (c) Steve Scherf et al.
# Submitted via: EasyCDDAExtractor 16.0.1.1
#
DISCID=7206b30a
DTITLE=Larry Butler feat Willie Nelson - Only The Dead Are Free
DYEAR=1997
DGENRE=Country
TTITLE0=Only The Dead Are Free
TTITLE1=I'm Not Wanted Anymore
TTITLE2=My Mama' Waltz
TTITLE3=Old Gladys
TTITLE4=The Difference Between Men And Boys
TTITLE5=Thinking Houston
TTITLE6=Big Balls In Cowtown
TTITLE7=Let's Forever Be Together
TTITLE8=Now His Horse Is Whisky
TTITLE9=Echoes Fade And Die
EXTD=
EXTT0=
EXTT1=
EXTT2=
EXTT3=
EXTT4=
EXTT5=
EXTT6=
EXTT7=
EXTT8=
EXTT9=
PLAYORDER=
